/* XPM */
static char * pixmap[] = {
/* width height num_colors chars_per_pixel */
"100 100 2 1",
/* colors */
"  c None",
"! c #4cff00",
/* pixels */
"                                                                                                    ",
"                                                                                                    ",
"                                        !!!!!!!!!!!!!!!!!!!!                                        ",
"                                    !!!!!!!!!!!!!!!!!!!!!!!!!!!!                                    ",
"                                 !!!!!!!!!!!!!!!!!!!!!!!!!!!!!!!!!!                                 ",
"                              !!!!!!!!!!!!!!!!!!!!!!!!!!!!!!!!!!!!!!!!                              ",
"                            !!!!!!!!!!!!!!!!!!!!!!!!!!!!!!!!!!!!!!!!!!!!                            ",
"                          !!!!!!!!!!!!!!!!!!!!!!!!!!!!!!!!!!!!!!!!!!!!!!!!                          ",
"                         !!!!!!!!!!!!!!!!!!!!!!!!!!!!!!!!!!!!!!!!!!!!!!!!!!                         ",
"                       !!!!!!!!!!!!!!!!!!!!!!!!!!!!!!!!!!!!!!!!!!!!!!!!!!!!!!                       ",
"                      !!!!!!!!!!!!!!!!!!!!!!!!!!!!!!!!!!!!!!!!!!!!!!!!!!!!!!!!                      ",
"                    !!!!!!!!!!!!!!!!!!!!!!!!!!!!!!!!!!!!!!!!!!!!!!!!!!!!!!!!!!!!                    ",
"                   !!!!!!!!!!!!!!!!!!!!!!!!!!!!!!!!!!!!!!!!!!!!!!!!!!!!!!!!!!!!!!                   ",
"                  !!!!!!!!!!!!!!!!!!!!!!!!!!!!!!!!!!!!!!!!!!!!!!!!!!!!!!!!!!!!!!!!                  ",
"                 !!!!!!!!!!!!!!!!!!!!!!!!!!!!!!!!!!!!!!!!!!!!!!!!!!!!!!!!!!!!!!!!!!                 ",
"                !!!!!!!!!!!!!!!!!!!!!!!!!!!!!!!!!!!!!!!!!!!!!!!!!!!!!!!!!!!!!!!!!!!!                ",
"               !!!!!!!!!!!!!!!!!!!!!!!!!!!!!!!!!!!!!!!!!!!!!!!!!!!!!!!!!!!!!!!!!!!!!!               ",
"              !!!!!!!!!!!!!!!!!!!!!!!!!!!!!!!!!!!!!!!!!!!!!!!!!!!!!!!!!!!!!!!!!!!!!!!!              ",
"             !!!!!!!!!!!!!!!!!!!!!!!!!!!!!!!!!!!!!!!!!!!!!!!!!!!!!!!!!!!!!!!!!!!!!!!!!!             ",
"            !!!!!!!!!!!!!!!!!!!!!!!!!!!!!!!!!!!!!!!!!!!!!!!!!!!!!!!!!!!!!!!!!!!!!!!!!!!!            ",
"           !!!!!!!!!!!!!!!!!!!!!!!!!!!!!!!!!!!!!!!!!!!!!!!!!!!!!!!!!!!!!!!!!!!!!!!!!!!!!!           ",
"           !!!!!!!!!!!!!!!!!!!!!!!!!!!!!!!!!!!!!!!!!!!!!!!!!!!!!!!!!!!!!!!!!!!!!!!!!!!!!!           ",
"          !!!!!!!!!!!!!!!!!!!!!!!!!!!!!!!!!!!!!!!!!!!!!!!!!!!!!!!!!!!!!!!!!!!!!!!!!!!!!!!!          ",
"         !!!!!!!!!!!!!!!!!!!!!!!!!!!!!!!!!!!!!!!!!!!!!!!!!!!!!!!!!!!!!!!!!!!!!!!!!!!!!!!!!!         ",
"         !!!!!!!!!!!!!!!!!!!!!!!!!!!!!!!!!!!!!!!!!!!!!!!!!!!!!!!!!!!!!!!!!!!!!!!!!!!!!!!!!!         ",
"        !!!!!!!!!!!!!!!!!!!!!!!!!!!!!!!!!!!!!!!!!!!!!!!!!!!!!!!!!!!!!!!!!!!!!!!!!!!!!!!!!!!!        ",
"       !!!!!!!!!!!!!!!!!!!!!!!!!!!!!!!!!!!!!!!!!!!!!!!!!!!!!!!!!!!!!!!!!!!!!!!!!!!!!!!!!!!!!!       ",
"       !!!!!!!!!!!!!!!!!!!!!!!!!!!!!!!!!!!!!!!!!!!!!!!!!!!!!!!!!!!!!!!!!!!!!!!!!!!!!!!!!!!!!!       ",
"      !!!!!!!!!!!!!!!!!!!!!!!!!!!!!!!!!!!!!!!!!!!!!!!!!!!!!!!!!!!!!!!!!!!!!!!!!!!!!!!!!!!!!!!!      ",
"      !!!!!!!!!!!!!!!!!!!!!!!!!!!!!!!!!!!!!!!!!!!!!!!!!!!!!!!!!!!!!!!!!!!!!!!!!!!!!!!!!!!!!!!!      ",
"     !!!!!!!!!!!!!!!!!!!!!!!!!!!!!!!!!!!!!!!!!!!!!!!!!!!!!!!!!!!!!!!!!!!!!!!!!!!!!!!!!!!!!!!!!!     ",
"     !!!!!!!!!!!!!!!!!!!!!!!!!!!!!!!!!!!!!!!!!!!!!!!!!!!!!!!!!!!!!!!!!!!!!!!!!!!!!!!!!!!!!!!!!!     ",
"     !!!!!!!!!!!!!!!!!!!!!!!!!!!!!!!!!!!!!!!!!!!!!!!!!!!!!!!!!!!!!!!!!!!!!!!!!!!!!!!!!!!!!!!!!!     ",
"    !!!!!!!!!!!!!!!!!!!!!!!!!!!!!!!!!!!!!!!!!!!!!!!!!!!!!!!!!!!!!!!!!!!!!!!!!!!!!!!!!!!!!!!!!!!!    ",
"    !!!!!!!!!!!!!!!       !!!!!!!!!!!!!!!!!!!!!!!!!!!!!!!!!!!!!!!!!!!!!!!!!!!!!!!!!!!!!!!!!!!!!!    ",
"    !!!!!!!                       !!!!!!!!!!!!!!!!!!!!!!!!!!!!!!!!!!!!!!!!!!!!!!!!!!!!!!!!!!!!!!    ",
"   !!!!                               !!!!!!!!!!!!!!!!!!!!!!!!!!!!!!!!!!!!!!!!!!!!!!!!!!!!!!!!!!!   ",
"   !                                     !!!!!!!!!!!!!!!!!!!!!!!!!!!!!!!!!!!!!!!!!!!!!!!!!!!!!!!!   ",
"                                            !!!!!!!!!!!!!!!!!!!!!!!!!!!!!!!!!!!!!!!!!!!!!!!!!!!!!   ",
"                                              !!!!!!!!!!!!!!!!!!!!!!!!!!!!!!!!!!!!!!!!!!!!!!!!!!!   ",
"                                                !!!!!!!!!!!!!!!!!!!!!!!!!!!!!!!!!!!!!!!!!!!!!!!!!!  ",
"                                                  !!!!!!!!!!!!!!!!!!!!!!!!!!!!!!!!!!!!!!!!!!!!!!!!  ",
"                                                    !!!!!!!!!!!!!!!!!!!!!!!!!!!!!!!!!!!!!!!!!!!!!!  ",
"                                                      !!!!!!!!!!!!!!!!!!!!!!!!!!!!!!!!!!!!!!!!!!!!  ",
"                                                       !!!!!!!!!!!!!!!!!!!!!!!!!!!!!!!!!!!!!!!!!!!  ",
"                                                        !!!!!!!!!!!!!!!!!!!!!!!!!!!!!!!!!!!!!!!!!!  ",
"                                                          !!!!!!!!!!!!!!!!!!!!!!!!!!!!!!!!!!!!!!!!  ",
"                                                           !!!!!!!!!!!!!!!!!!!!!!!!!!!!!!!!!!!!!!!  ",
"                                                            !!!!!!!!!!!!!!!!!!!!!!!!!!!!!!!!!!!!!!  ",
"                                                             !!!!!!!!!!!!!!!!!!!!!!!!!!!!!!!!!!!!!  ",
"                                                              !!!!!!!!!!!!!!!!!!!!!!!!!!!!!!!!!!!!  ",
"                                                               !!!!!!!!!!!!!!!!!!!!!!!!!!!!!!!!!!!  ",
"                                                                !!!!!!!!!!!!!!!!!!!!!!!!!!!!!!!!!!  ",
"                                                                 !!!!!!!!!!!!!!!!!!!!!!!!!!!!!!!!!  ",
"                                                                  !!!!!!!!!!!!!!!!!!!!!!!!!!!!!!!!  ",
"                                                                   !!!!!!!!!!!!!!!!!!!!!!!!!!!!!!!  ",
"                                                                   !!!!!!!!!!!!!!!!!!!!!!!!!!!!!!!  ",
"                                                                    !!!!!!!!!!!!!!!!!!!!!!!!!!!!!!  ",
"                                                                     !!!!!!!!!!!!!!!!!!!!!!!!!!!!!  ",
"                                                                     !!!!!!!!!!!!!!!!!!!!!!!!!!!!!  ",
"                                                                      !!!!!!!!!!!!!!!!!!!!!!!!!!!   ",
"                                                                       !!!!!!!!!!!!!!!!!!!!!!!!!!   ",
"                                                                       !!!!!!!!!!!!!!!!!!!!!!!!!!   ",
"                                                                        !!!!!!!!!!!!!!!!!!!!!!!!!   ",
"                                                                        !!!!!!!!!!!!!!!!!!!!!!!!    ",
"                                                                         !!!!!!!!!!!!!!!!!!!!!!!    ",
"                                                                         !!!!!!!!!!!!!!!!!!!!!!!    ",
"                                                                         !!!!!!!!!!!!!!!!!!!!!!     ",
"                                                                          !!!!!!!!!!!!!!!!!!!!!     ",
"                                                                          !!!!!!!!!!!!!!!!!!!!!     ",
"                                                                          !!!!!!!!!!!!!!!!!!!!      ",
"                                                                           !!!!!!!!!!!!!!!!!!!      ",
"                                                                           !!!!!!!!!!!!!!!!!!       ",
"                                                                           !!!!!!!!!!!!!!!!!!       ",
"                                                                            !!!!!!!!!!!!!!!!        ",
"                                                                            !!!!!!!!!!!!!!!         ",
"                                                                            !!!!!!!!!!!!!!!         ",
"                                                                            !!!!!!!!!!!!!!          ",
"                                                                            !!!!!!!!!!!!!           ",
"                                                                            !!!!!!!!!!!!!           ",
"                                                                            !!!!!!!!!!!!            ",
"                                                                             !!!!!!!!!!             ",
"                                                                             !!!!!!!!!              ",
"                                                                             !!!!!!!!               ",
"                                                                             !!!!!!!                ",
"                                                                             !!!!!!                 ",
"                                                                             !!!!!                  ",
"                                                                            !!!!!                   ",
"                                                                            !!!!                    ",
"                                                                            !!                      ",
"                                                                            !                       ",
"                                                                                                    ",
"                                                                                                    ",
"                                                                                                    ",
"                                                                                                    ",
"                                                                                                    ",
"                                                                                                    ",
"                                                                                                    ",
"                                                                                                    ",
"                                                                                                    "
};
